<svg xmlns="http://www.w3.org/2000/svg" xmlns:xlink="http://www.w3.org/1999/xlink" viewBox="0 0 110.13 220.96"><defs><style>.cls-1{isolation:isolate;}.cls-2{fill:url(#linear-gradient);}.cls-3{fill:url(#linear-gradient-2);}.cls-4{fill:url(#linear-gradient-3);}.cls-5,.cls-6{mix-blend-mode:screen;}.cls-5{fill:url(#linear-gradient-4);}.cls-6{fill:url(#linear-gradient-5);}.cls-7{fill:url(#linear-gradient-6);}.cls-8{fill:url(#linear-gradient-7);}.cls-9{fill:url(#linear-gradient-8);}.cls-10{fill:url(#linear-gradient-9);}</style><linearGradient id="linear-gradient" x1="-418.1" y1="76.31" x2="-418.1" y2="37.39" gradientTransform="matrix(-1, 0, 0, 1, -416.22, 0)" gradientUnits="userSpaceOnUse"><stop offset="0" stop-color="gray"/><stop offset="0.01" stop-color="#727272"/><stop offset="0.06" stop-color="#4f4f4f"/><stop offset="0.1" stop-color="#323232"/><stop offset="0.15" stop-color="#1c1c1c"/><stop offset="0.2" stop-color="#0c0c0c"/><stop offset="0.26" stop-color="#030303"/><stop offset="0.34"/><stop offset="0.7"/><stop offset="0.75" stop-color="#050505"/><stop offset="0.8" stop-color="#131313"/><stop offset="0.86" stop-color="#2a2a2a"/><stop offset="0.92" stop-color="#4b4b4b"/><stop offset="0.98" stop-color="#747474"/><stop offset="1" stop-color="gray"/></linearGradient><linearGradient id="linear-gradient-2" x1="-418.1" y1="96.75" x2="-418.1" y2="80.79" xlink:href="#linear-gradient"/><linearGradient id="linear-gradient-3" x1="-529" y1="110.48" x2="-415.16" y2="110.48" gradientTransform="matrix(-1, 0, 0, 1, -416.22, 0)" gradientUnits="userSpaceOnUse"><stop offset="0" stop-color="#333"/><stop offset="0" stop-color="#323232"/><stop offset="0.03" stop-color="#1c1c1c"/><stop offset="0.06" stop-color="#0c0c0c"/><stop offset="0.1" stop-color="#030303"/><stop offset="0.15"/><stop offset="0.87"/><stop offset="0.91" stop-color="#050505"/><stop offset="0.95" stop-color="#131313"/><stop offset="0.99" stop-color="#2a2a2a"/><stop offset="1" stop-color="#333"/></linearGradient><linearGradient id="linear-gradient-4" x1="-471.81" y1="7.04" x2="-471.81" y2="-0.79" gradientTransform="matrix(-1, 0, 0, 1, -416.22, 0)" gradientUnits="userSpaceOnUse"><stop offset="0"/><stop offset="0.16" stop-color="#050505"/><stop offset="0.34" stop-color="#131313"/><stop offset="0.53" stop-color="#2a2a2a"/><stop offset="0.74" stop-color="#4b4b4b"/><stop offset="0.95" stop-color="#747474"/><stop offset="1" stop-color="gray"/></linearGradient><linearGradient id="linear-gradient-5" x1="-2863.04" y1="-2334.04" x2="-2863.04" y2="-2341.87" gradientTransform="matrix(1, 0, 0, -1, 2918.63, -2120.19)" xlink:href="#linear-gradient-4"/><linearGradient id="linear-gradient-6" x1="1.53" y1="151.58" x2="258.91" y2="-44.01" gradientUnits="userSpaceOnUse"><stop offset="0" stop-color="#d8d8d9"/><stop offset="0.89" stop-color="#fff"/></linearGradient><linearGradient id="linear-gradient-7" x1="55.6" y1="-0.36" x2="55.6" y2="11.68" gradientUnits="userSpaceOnUse"><stop offset="0"/><stop offset="0.14" stop-color="#050505"/><stop offset="0.3" stop-color="#131313"/><stop offset="0.47" stop-color="#2a2a2a"/><stop offset="0.65" stop-color="#4b4b4b"/><stop offset="0.83" stop-color="#747474"/><stop offset="1" stop-color="#a1a1a1"/></linearGradient><linearGradient id="linear-gradient-8" x1="38.01" y1="3.56" x2="38.01" y2="10.17" xlink:href="#linear-gradient-7"/><linearGradient id="linear-gradient-9" x1="72.97" y1="3.56" x2="72.97" y2="10.17" xlink:href="#linear-gradient-7"/></defs><title>Asset 1</title><g class="cls-1"><g id="Layer_2" data-name="Layer 2"><g id="Layer_1-2" data-name="Layer 1"><rect class="cls-2" y="37.39" width="3.76" height="38.92" rx="0.98"/><rect class="cls-3" y="80.79" width="3.76" height="15.96" rx="0.98"/><rect class="cls-4" x="1.05" width="109.09" height="220.96" rx="15.24"/><path class="cls-5" d="M17.56,1.15H93.62a15.23,15.23,0,0,1,15.23,15.24v2.18A15.23,15.23,0,0,0,93.62,3.33H17.56A15.23,15.23,0,0,0,2.33,18.57V16.39A15.23,15.23,0,0,1,17.56,1.15Z"/><path class="cls-6" d="M93.62,219.75H17.56A15.24,15.24,0,0,1,2.33,204.51v-2.18a15.23,15.23,0,0,0,15.23,15.24H93.62a15.23,15.23,0,0,0,15.23-15.24v2.18A15.24,15.24,0,0,1,93.62,219.75Z"/><path class="cls-7" d="M107.34,16.52V204.45A11.53,11.53,0,0,1,95.77,216H15.41A11.53,11.53,0,0,1,3.84,204.45V16.52A11.48,11.48,0,0,1,13.46,5.2,8.61,8.61,0,0,1,15.41,5H29.52a3.24,3.24,0,0,1,3.24,3.24A3.27,3.27,0,0,0,36,11.53H75.18a3.27,3.27,0,0,0,3.24-3.29A3.24,3.24,0,0,1,81.66,5H95.77A11.53,11.53,0,0,1,107.34,16.52Z"/><path class="cls-8" d="M68,8.29H43.19a.69.69,0,0,1-.69-.69h0a.69.69,0,0,1,.69-.69H68a.69.69,0,0,1,.69.69h0A.69.69,0,0,1,68,8.29Z"/><path class="cls-9" d="M38,8.83a1.26,1.26,0,1,0-1.25-1.26A1.26,1.26,0,0,0,38,8.83Z"/><path class="cls-10" d="M73,8.83a1.26,1.26,0,1,0-1.25-1.26A1.26,1.26,0,0,0,73,8.83Z"/></g></g></g></svg>