<svg id="Layer_1" data-name="Layer 1" xmlns="http://www.w3.org/2000/svg" xmlns:xlink="http://www.w3.org/1999/xlink" viewBox="0 0 285.98 445.06"><defs><style>.cls-1{fill:none;}.cls-2{clip-path:url(#clip-path);}.cls-3{fill:#1d1d1b;}</style><clipPath id="clip-path" transform="translate(-4.86 -1.4)"><rect class="cls-1" x="4.86" width="285.98" height="447.86"/></clipPath></defs><title>sparowl</title><g class="cls-2"><path class="cls-3" d="M68.14,352.14s29.63,79.34,50.63,89.28l4.31-42.12,16.15,47.16L149,406.64l6.93,39.82L178,399.3l4,42.12a316.25,316.25,0,0,0,27.66-45c6.67-13.1,11.54-28.24,17.91-44.3L187.26,422l-4.43-38-24.21,35.91-9-28.2-10.94,27.6-18.33-35.31-8.59,38L68.15,352.12Z" transform="translate(-4.86 -1.4)"/><path class="cls-3" d="M226.13,192.94c-13-.09-23.45-16.85-23.09-17,12.59-4.35,35.45-17.51,38.51-58.59,0,0,2.4,21.11,4.12,48.92.89,16.77-9.21,26.71-19.54,26.64Zm-7.07,27.73c-34.18,5.29-46.28-38.47-47.4-43.17,5.57.38,16.83,2.27,27.17-.81C222.37,214.23,243.52,189,243.52,189c-3.86,11.89-11.76,29.66-24.46,31.63Zm-36.74,20.38c-18.2-8.64-15.86-47.64-14.49-61.08l.55-1.1s13,52.94,50.52,46.89c-8.87,7.82-25.68,20.46-36.57,15.29Zm-20.47-72.67-14,28.65-14-28.65S87.5,185.15,73.46,148.45c-15.39-40.27,16-51.29,16.2-51.36h0a33.47,33.47,0,0,0-7.29,21.3c0,16.59,11,30,24.49,30,10.25,0,19-7.71,22.67-18.63h0l.21-.5a200,200,0,0,1,18.11,21.6,199.08,199.08,0,0,1,18.1-21.6l.2.5h0c3.66,10.92,12.42,18.63,22.66,18.63,13.53,0,24.49-13.45,24.49-30A33.46,33.46,0,0,0,206,97.1h0c.18.07,31.59,11.09,16.2,51.35-14,36.7-60.38,19.93-60.38,19.93Zm-48.47,72.67c-10.91,5.18-27.7-7.47-36.57-15.29,37.48,6.05,50.52-46.89,50.52-46.89l.54,1.1c1.37,13.44,3.72,52.44-14.49,61.08Zm-61.2-52s21.15,25.2,44.7-12.35c10.34,3.09,21.59,1.19,27.16.82-1.12,4.69-13.22,48.45-47.4,43.16C63.93,218.69,56,200.92,52.18,189ZM50,166.3c1.72-27.8,4.12-48.92,4.12-48.92,3.06,41.08,25.92,54.24,38.5,58.59.37.13-10.11,16.89-23.08,17C59.25,193,49.14,183.06,50,166.3ZM61.48,85.52A106.06,106.06,0,0,1,85,94.58c-.43.23-27.62,14.68-19.33,49-3.73-13.63-10-40-4.22-58ZM108,131.36c5.65,0,10.26-5.63,10.72-12.8,3,2.69,5.72,5.36,8.28,8l-.47,2c-3.23,9.44-10.77,16.11-19.65,16.11-11.79,0-21.36-11.73-21.36-26.19a29,29,0,0,1,7.16-19.54c3.39,2.06,6.67,4.24,9.82,6.5-3.15,2.44-5.28,6.9-5.28,12,0,7.73,4.83,14,10.77,14Zm85.2-26c3.15-2.26,6.43-4.44,9.82-6.5a29,29,0,0,1,7.16,19.53c0,14.47-9.57,26.19-21.36,26.19-8.88,0-16.42-6.67-19.65-16.11l-.47-2c2.56-2.59,5.31-5.26,8.28-8,.45,7.17,5.08,12.81,10.72,12.81,6,0,10.77-6.26,10.77-14,0-5.11-2.11-9.56-5.26-12ZM78.41,68.13a126.58,126.58,0,0,1,69.44,49.21A126.57,126.57,0,0,1,217.3,68.13a23.32,23.32,0,0,1,13.55,10c-43.42,19.19-72.73,52-83,65.76-10.27-13.81-39.59-46.57-83-65.76a23.3,23.3,0,0,1,13.56-10Zm12.65-1.28c48.22,2.58,56.79,24,56.79,24s8.56-21.42,56.79-24h0c-29.28,9.58-56.8,43.55-56.8,43.55s-27.52-34-56.8-43.55ZM230,143.53c8.29-34.27-18.9-48.73-19.33-48.95a105.87,105.87,0,0,1,23.55-9.06c5.75,18-.49,44.38-4.21,58Zm11.55,136.64s28-76.85,3.23-206.1c0,0,18.85-46.11-16.15-72.66,0,0,28,57.55-24.24,61.27s-56.54,22.61-56.54,22.61S143.54,66.38,91.3,62.67,67.07,1.4,67.07,1.4C32.07,28,50.91,74.07,50.91,74.07c-24.77,129.25,3.24,206.1,3.24,206.1-6.12-21.33-6.58-57.75-5.3-90.75,5.31,33.17,53.87,69.21,70.42,52.29,13.07-13.37,13.26-40.53,12.22-54.47l16.36,32.84,16.36-32.84c-1,13.94-.85,41.1,12.22,54.47,16.55,16.92,65.12-19.12,70.42-52.29,1.28,33,.82,69.42-5.29,90.75Zm47.93-86.62c-3.77-47.52-27.47-41.93-28.54-37,0,0,21.15,24.84,18.85,90.13-2.74,77.81-31.24,139.74-42,151.62,0,0,63-62.07,51.7-204.71ZM15.91,246.63c-2.3-65.29,18.85-90.12,18.85-90.12-1.08-4.9-24.77-10.49-28.54,37C-5.1,336.18,57.91,398.25,57.91,398.25c-10.76-11.88-39.26-73.8-42-151.62Z" transform="translate(-4.86 -1.4)"/></g></svg>